HIERARCHY
ROOT joint_Root
{
	OFFSET 0.0 0.0 0.0
	CHANNELS 6 Xposition Yposition Zposition Zrotation Xrotation Yrotation 
	JOINT Hips
	{
		OFFSET 4.5925 91.4895 -427.239
		CHANNELS 6 Xposition Yposition Zposition Zrotation Xrotation Yrotation 
		JOINT Spine
		{
			OFFSET 15.7357 0.0 0.0
			CHANNELS 6 Xposition Yposition Zposition Zrotation Xrotation Yrotation 
			JOINT Chest
			{
				OFFSET 8.98455 -0.406207 0.0
				CHANNELS 6 Xposition Yposition Zposition Zrotation Xrotation Yrotation 
				JOINT Neck
				{
					OFFSET 16.3773 0.0 0.0
					CHANNELS 6 Xposition Yposition Zposition Zrotation Xrotation Yrotation 
					JOINT Head
					{
						OFFSET 6.45672 0.0 0.0
						CHANNELS 6 Xposition Yposition Zposition Zrotation Xrotation Yrotation 
						End Site
						{
							OFFSET 0.0 0.0 0.0
						}
					}
				}
				JOINT Shoulder_L
				{
					OFFSET 12.9942 -0.242716 4.98039
					CHANNELS 6 Xposition Yposition Zposition Zrotation Xrotation Yrotation 
					JOINT UpperArm_L
					{
						OFFSET 5.34809 0.0 0.0
						CHANNELS 6 Xposition Yposition Zposition Zrotation Xrotation Yrotation 
						JOINT LowerArm_L
						{
							OFFSET 24.3286 1.87007e-05 0.0
							CHANNELS 6 Xposition Yposition Zposition Zrotation Xrotation Yrotation 
							JOINT Hand_L
							{
								OFFSET 22.2916 0.0 0.0
								CHANNELS 6 Xposition Yposition Zposition Zrotation Xrotation Yrotation 
								End Site
								{
									OFFSET 0.0 0.0 0.0
								}
							}
						}
					}
				}
				JOINT Shoulder_R
				{
					OFFSET 12.9945 -0.242716 -4.98039
					CHANNELS 6 Xposition Yposition Zposition Zrotation Xrotation Yrotation 
					JOINT UpperArm_R
					{
						OFFSET -5.34813 0.0 0.0
						CHANNELS 6 Xposition Yposition Zposition Zrotation Xrotation Yrotation 
						JOINT LowerArm_R
						{
							OFFSET -24.3289 0.000322201 0.0
							CHANNELS 6 Xposition Yposition Zposition Zrotation Xrotation Yrotation 
							JOINT Hand_R
							{
								OFFSET -22.2915 -0.000108084 0.0
								CHANNELS 6 Xposition Yposition Zposition Zrotation Xrotation Yrotation 
								End Site
								{
									OFFSET 0.0 0.0 0.0
								}
							}
						}
					}
				}
			}
		}
		JOINT UpperLeg_L
		{
			OFFSET -2.19248 -6.46944 0.0
			CHANNELS 6 Xposition Yposition Zposition Zrotation Xrotation Yrotation 
			JOINT LowerLeg_L
			{
				OFFSET 39.0811 0.0 -1.23785e-05
				CHANNELS 6 Xposition Yposition Zposition Zrotation Xrotation Yrotation 
				JOINT Foot_L
				{
					OFFSET 40.9854 0.0 -1.26872e-05
					CHANNELS 6 Xposition Yposition Zposition Zrotation Xrotation Yrotation 
					JOINT Toes_L
					{
						OFFSET 11.7543 0.0 0.0
						CHANNELS 6 Xposition Yposition Zposition Zrotation Xrotation Yrotation 
						End Site
						{
							OFFSET 0.0 0.0 0.0
						}
					}
				}
			}
		}
		JOINT UpperLeg_R
		{
			OFFSET -2.19251 6.46944 0.0
			CHANNELS 6 Xposition Yposition Zposition Zrotation Xrotation Yrotation 
			JOINT LowerLeg_R
			{
				OFFSET -39.0811 -0.00228153 -0.0401928
				CHANNELS 6 Xposition Yposition Zposition Zrotation Xrotation Yrotation 
				JOINT Foot_R
				{
					OFFSET -40.9854 0.0 0.0
					CHANNELS 6 Xposition Yposition Zposition Zrotation Xrotation Yrotation 
					JOINT Toes_R
					{
						OFFSET -11.7543 0.0 0.0
						CHANNELS 6 Xposition Yposition Zposition Zrotation Xrotation Yrotation 
						End Site
						{
							OFFSET 0.0 0.0 0.0
						}
					}
				}
			}
		}
	}
}
MOTION
Frames:	6
Frame Time:	0.0333333
0.000000 0.000000 0.000000 0.000000 0.000000 -0.000000 -3.111540 82.778900 -1.379450 85.782000 -0.958453 11.670200 15.735700 0.000005 -0.000001 83.503700 81.225700 -82.444300 8.984550 -0.406207 -0.000000 9.693130 -1.955820 2.283190 16.377300 -0.000001 -0.000001 -1.630870 -1.139150 1.112160 6.456720 -0.000001 -0.000000 -4.268900 1.392700 0.832828 12.994200 -0.242716 4.980390 -91.440600 4.783820 -73.219600 5.348090 -0.000007 -0.000001 -66.092800 27.962100 -9.723940 24.328600 0.000019 0.000005 13.651900 21.076900 -34.033900 22.291600 -0.000001 0.000005 14.853800 5.209050 2.489290 12.994500 -0.242716 -4.980390 88.011700 10.137300 -78.841800 -5.348130 -0.000001 -0.000004 -56.776000 21.219300 -11.236600 -24.328900 0.000322 -0.000009 2.238270 3.802150 -30.524700 -22.291500 -0.000108 -0.000004 6.512470 5.304220 -0.055745 -2.192480 -6.469440 -0.000000 -167.761000 -11.348400 -14.198400 39.081100 -0.000007 -0.000012 -0.337777 0.185164 61.270100 40.985400 -0.000006 -0.000013 1.818380 10.193200 -85.065000 11.754300 -0.000000 0.000003 -0.000135 -0.001325 -16.628100 -2.192510 6.469440 -0.000001 -178.308000 13.611500 167.709000 -39.081100 -0.002282 -0.040193 0.073426 -0.041695 59.300100 -40.985400 0.000008 0.000006 9.253150 4.691400 -85.678800 -11.754300 -0.000006 -0.000006 -0.972860 -1.217340 -16.368600
0.000000 0.000000 0.000000 0.000000 0.000000 -0.000000 -3.208980 85.274100 -0.808179 85.498600 1.063090 11.238000 15.735700 0.000005 -0.000001 83.170300 82.119000 -82.897900 8.984550 -0.406207 -0.000000 7.891760 -1.866250 0.672959 16.377300 -0.000001 -0.000001 -0.318067 -1.579090 1.468800 6.456720 -0.000001 -0.000000 -3.918040 0.457492 2.720600 12.994200 -0.242716 4.980390 -91.413500 4.501150 -72.545300 5.348090 -0.000007 -0.000001 -67.577700 25.032400 -7.450830 24.328600 0.000019 0.000005 10.845300 18.110600 -31.644900 22.291600 -0.000001 0.000005 13.855300 5.179620 3.224120 12.994500 -0.242716 -4.980390 88.166600 8.576680 -77.885200 -5.348130 -0.000001 -0.000004 -52.123200 17.609600 -13.862000 -24.328900 0.000322 -0.000009 2.929550 4.300810 -34.321300 -22.291500 -0.000108 -0.000004 1.959810 5.352530 -1.455200 -2.192480 -6.469440 -0.000000 -167.958000 -9.843240 -11.152500 39.081100 -0.000007 -0.000012 -0.258198 0.188352 53.890500 40.985400 -0.000006 -0.000013 1.379370 10.700200 -81.535100 11.754300 -0.000000 0.000003 -0.000108 -0.001096 -16.619500 -2.192510 6.469440 -0.000001 -178.313000 15.287900 171.565000 -39.081100 -0.002282 -0.040193 0.063914 -0.048213 51.527500 -40.985400 0.000008 0.000006 8.885610 5.152150 -81.905400 -11.754300 -0.000006 -0.000006 -1.048860 -1.307470 -16.702600
0.000000 0.000000 0.000000 0.000000 0.000000 -0.000000 -2.947040 88.031700 -0.523724 86.113700 1.634960 9.296690 15.735700 0.000005 -0.000001 83.970300 83.614300 -84.763700 8.984550 -0.406207 -0.000000 4.927090 -1.319280 -1.528390 16.377300 -0.000001 -0.000001 1.400610 -1.640210 1.687230 6.456720 -0.000001 -0.000000 -3.128560 -0.392173 4.419550 12.994200 -0.242716 4.980390 -91.259700 3.757200 -71.448400 5.348090 -0.000007 -0.000001 -68.588500 22.413900 -4.012930 24.328600 0.000019 0.000005 9.644430 16.322800 -31.158900 22.291600 -0.000001 0.000005 11.323900 5.221680 2.160000 12.994500 -0.242716 -4.980390 88.536500 6.495370 -77.272700 -5.348130 -0.000001 -0.000004 -44.701400 9.207320 -19.147800 -24.328900 0.000322 -0.000009 3.899120 4.565340 -40.576000 -22.291500 -0.000108 -0.000004 4.790320 5.361720 -1.714010 -2.192480 -6.469440 -0.000000 -169.335000 -10.202500 -8.253600 39.081100 -0.000007 -0.000012 -0.176044 0.180502 44.284200 40.985400 -0.000006 -0.000013 0.906591 10.845600 -76.794400 11.754300 -0.000000 0.000003 -0.000075 -0.000802 -16.608500 -2.192510 6.469440 -0.000001 -178.877000 15.869200 174.193000 -39.081100 -0.002282 -0.040193 0.045465 -0.046256 42.370200 -40.985400 0.000008 0.000006 8.297730 6.481530 -76.619300 -11.754300 -0.000006 -0.000006 -1.116870 -1.374360 -17.436900
0.000000 0.000000 0.000000 0.000000 0.000000 -0.000000 -2.401030 90.245400 -0.523545 86.970600 1.693430 7.087950 15.735700 0.000005 -0.000001 83.176700 84.976900 -84.932900 8.984550 -0.406207 -0.000000 2.194880 -1.107380 -3.487720 16.377300 -0.000001 -0.000001 2.597880 -1.031250 1.447240 6.456720 -0.000001 -0.000000 -2.690050 -0.536194 5.236020 12.994200 -0.242716 4.980390 -91.145100 3.131280 -69.901300 5.348090 -0.000007 -0.000001 -68.282600 20.154000 -0.673349 24.328600 0.000019 0.000005 10.598000 17.094400 -32.477500 22.291600 -0.000001 0.000005 8.265000 5.248170 1.478510 12.994500 -0.242716 -4.980390 89.134700 3.934460 -77.586900 -5.348130 -0.000001 -0.000004 -37.058400 -4.838420 -26.716900 -24.328900 0.000322 -0.000009 2.244140 2.152540 -46.280400 -22.291500 -0.000108 -0.000004 13.905000 5.456490 -4.734830 -2.192480 -6.469440 -0.000000 -171.051000 -11.257800 -5.728140 39.081100 -0.000007 -0.000012 -0.116640 0.167857 34.795000 40.985400 -0.000006 -0.000013 0.670462 11.217000 -72.005700 11.754300 -0.000000 0.000003 -0.000044 -0.000505 -16.597200 -2.192510 6.469440 -0.000001 179.964000 17.819800 175.876000 -39.081100 -0.002282 -0.040193 0.031143 -0.040929 34.233400 -40.985400 0.000008 0.000006 7.921020 9.392800 -71.195400 -11.754300 -0.000006 -0.000006 -1.273660 -1.531640 -18.633000
0.000000 0.000000 0.000000 0.000000 0.000000 -0.000000 -1.875920 91.576900 -0.809278 87.113100 1.618420 4.962650 15.735700 0.000005 -0.000001 85.655600 85.963300 -87.807500 8.984550 -0.406207 -0.000000 0.278923 -0.470883 -4.299760 16.377300 -0.000001 -0.000001 2.512840 -0.630410 0.720296 6.456720 -0.000001 -0.000000 -2.945700 -0.684675 5.127040 12.994200 -0.242716 4.980390 -91.243400 3.209170 -68.808200 5.348090 -0.000007 -0.000001 -66.471000 19.564500 1.520730 24.328600 0.000019 0.000005 11.506000 17.438700 -34.186000 22.291600 -0.000001 0.000005 7.050250 5.255790 1.278800 12.994500 -0.242716 -4.980390 89.888900 0.563881 -78.923200 -5.348130 -0.000001 -0.000004 -29.546800 -22.920000 -33.087600 -24.328900 0.000322 -0.000009 -4.092490 -3.304780 -51.099700 -22.291500 -0.000108 -0.000004 26.862800 5.577250 -9.827230 -2.192480 -6.469440 -0.000000 -172.029000 -12.335800 -4.706700 39.081100 -0.000007 -0.000012 -0.082277 0.154384 28.055100 40.985400 -0.000006 -0.000013 0.599147 11.694500 -68.430900 11.754300 -0.000000 0.000003 -0.000047 -0.000540 -16.598500 -2.192510 6.469440 -0.000001 179.636000 20.214700 176.376000 -39.081100 -0.002282 -0.040193 0.022412 -0.035368 28.378100 -40.985400 0.000008 0.000006 7.332840 12.645000 -67.389300 -11.754300 -0.000006 -0.000006 -0.852664 -1.025190 -18.855000
0.000000 0.000000 0.000000 0.000000 0.000000 -0.000000 -1.658130 92.233500 -1.182290 87.190000 1.969030 3.374430 15.735700 0.000005 -0.000001 93.567200 86.410800 -96.018500 8.984550 -0.406207 -0.000000 -0.583532 0.625023 -4.896900 16.377300 -0.000001 -0.000001 1.723770 -1.062140 0.377944 6.456720 -0.000001 -0.000000 -3.818210 -1.151880 4.147640 12.994200 -0.242716 4.980390 -91.572800 3.972150 -68.378600 5.348090 -0.000007 -0.000001 -62.677900 20.245200 2.192770 24.328600 0.000019 0.000005 12.278100 17.299600 -36.198900 22.291600 -0.000001 0.000005 7.902250 5.261980 1.114250 12.994500 -0.242716 -4.980390 90.796700 -4.412900 -79.752600 -5.348130 -0.000001 -0.000004 -27.402400 -43.777700 -39.438600 -24.328900 0.000322 -0.000009 -6.592080 -4.776800 -54.221300 -22.291500 -0.000108 -0.000004 30.792200 5.635130 -13.710300 -2.192480 -6.469440 -0.000000 -172.541000 -13.945400 -4.698480 39.081100 -0.000007 -0.000012 -0.056509 0.125834 24.183900 40.985400 -0.000006 -0.000013 0.751996 13.292000 -66.195800 11.754300 -0.000000 0.000003 -0.000044 -0.000507 -16.597300 -2.192510 6.469440 -0.000001 179.640000 22.615700 176.670000 -39.081100 -0.002282 -0.040193 0.016290 -0.028886 24.190300 -40.985400 0.000008 0.000006 6.959260 15.177800 -65.430500 -11.754300 -0.000006 -0.000006 -0.763742 -0.921755 -18.813200
